<svg xmlns="http://www.w3.org/2000/svg" width="12" height="12" version="1.0">
<symbol id="logo">
<path d="M24.15 61.3c-8.25-1.9-14.9-7.75-18.2-16.05-1.05-2.65-1.2-3.8-1.2-10.25 0-6.25.15-7.5 1-9.25 1.05-2.1 2.25-2.6 4.55-2.05 1.05.3 1.2.6 1.2 2.45 0 1.15-.3 3.6-.7 5.5-.6 2.85-.6 3.85-.05 6.6 1.8 8.4 8.7 15.35 17.25 17.35 4.65 1.05 11.3-.95 15.85-4.85C45.8 49.1 50 43.4 50 42.45c0-.25-3.5-.45-7.75-.45-6.55 0-7.75.1-7.75.75 0 .6.8.75 4.4.75 6.5 0 6.7.1 6.5 3.2l-.15 2.55-5.35.15-5.35.15-.15 1.35c-.15 1.3-.25 1.35-3.15 1.35s-3-.05-3.15-1.35l-.15-1.4H22.8c-5.65 0-6.3-.3-6.3-2.8 0-2.75.95-3.2 6.55-3.2 4.05 0 4.95-.15 4.95-.75s-1.35-.75-7.85-.85l-7.9-.15v-5l7.9-.15c7.45-.1 7.85-.2 7.85-1.1 0-.95-.35-1-7.35-1-4.1 0-7.7-.2-8.05-.45-.45-.25-.6-1.25-.5-2.85l.15-2.45 7.9-.15c7.4-.1 7.85-.2 7.85-1.1 0-.9-.45-1-7.85-1.1l-7.9-.15-.15-2.35c-.2-3.2.55-3.55 7.35-3.4 7.55.2 8.55.15 8.55-.75 0-.65-1.15-.75-7.45-.75-8.45 0-8.7-.1-8.45-3.6l.15-2.15 7.9-.15c6.45-.1 7.85-.25 7.85-.85 0-.55-1.1-.75-5.35-.85l-5.4-.15v-5.5l5.4-.15L28 5.45V4.1c0-1.95.85-2.6 3.25-2.6s3.25.65 3.25 2.6v1.35l5.4.15 5.35.15v5.5l-5.35.15c-4.3.1-5.4.3-5.4.85 0 .6 1.4.75 7.9.85l7.85.15.15 2.15c.25 3.5 0 3.6-8.45 3.6-6.3 0-7.45.1-7.45.75s1.1.75 7.05.75c3.85 0 7.45.25 8 .5.65.35.95 1.05.95 2.15v1.6l2.65-.15c2.5-.15 2.7-.1 3.35 1.25.4.85.75 3.9.9 8 .2 5.65.05 7.1-.85 10-2.35 7.8-8.3 14.05-16 16.75-3.7 1.3-12.1 1.65-16.4.7zM50.5 41.25c0-.15-.1-.25-.25-.25s-.25.1-.25.25.1.25.25.25.25-.1.25-.25zm.9-6.25c0-3.8-.75-7.15-.85-3.7-.05 1.1-.3 2.25-.65 2.6-.4.4-2.9.6-8 .6-6.25 0-7.4.1-7.4.75s1.15.75 7.4.75c5.1 0 7.6.2 8 .6.35.35.6 1.4.65 2.4.1 3.2.85-.35.85-4zm-.95-7.85c0-1.05-.15-1.6-.3-1.25-.15.45-2.25.6-7.95.6-7.35 0-7.7.05-7.7 1 0 .9.4 1 7.9 1.15 4.3.05 7.9.2 8 .25.05.05.1-.75.05-1.75z"/><path fill="#fff" d="M0 33V0h64v66H0V33zm39.05 26.05c7.65-2.6 13.65-8.9 16.05-16.7.85-2.85 1-4.3.8-8.5-.3-5.75-1.05-7.95-2.6-7.75-1.2.15-1.2.5-.35 5.55 1.85 10.95-5.45 22.3-16.2 25.1-6.3 1.6-12.65.55-18.1-3.1-5.1-3.35-8.6-8.95-9.7-15.35-.5-2.9-.45-4.15.3-7.9.7-3.75.75-4.6.2-4.95-1.9-1.15-3.2 2.75-3.15 9.8 0 4.55.2 6 1.15 8.5 4.25 10.75 14 17.15 25.05 16.5 2.05-.1 5-.65 6.55-1.2zm-6.3-31.75c0-21.35-.05-23.5-.85-23.95-.6-.4-1.05-.35-1.6.1-.7.6-.8 3.3-.8 23.8 0 12.7.15 23.25.35 23.45.2.2.95.3 1.65.2l1.25-.15V27.3zm-4 19.2c0-1.25-.05-1.25-4.55-1.4-3.75-.1-4.75 0-5.4.7-.65.65-.7.95-.25 1.5.45.55 1.7.7 5.4.6 4.75-.15 4.8-.15 4.8-1.4zm15.15.15c.2-1.35-1.55-1.8-6.65-1.55-3.4.15-3.5.2-3.65 1.55l-.15 1.4 5.15-.15c4.85-.15 5.15-.2 5.3-1.25zm-15-7.25c-.15-1.1-.3-1.15-7.35-1.3-7.25-.15-8.45.1-7.9 1.6.25.7 1.45.8 7.85.8 7.55 0 7.55 0 7.4-1.1zm19.8.3c.75-1.9-.5-2.25-7.9-2.1l-7.05.15-.15 1.4-.15 1.35h7.45c6.45 0 7.55-.1 7.8-.8zm-19.95-8.2v-1.25h-7.5c-6.95 0-7.5.05-7.65.95-.1.5.1 1.15.5 1.35.35.25 3.8.4 7.65.3l7-.1V31.5zm19.75.75c.35-.4.5-1.1.3-1.5-.2-.6-1.55-.75-7.8-.75h-7.5v1.15c0 .65.15 1.35.35 1.5.15.2 3.4.35 7.15.35 5.5 0 7-.15 7.5-.75zM29 24.05c0-.55-.25-1.15-.55-1.35-.35-.2-3.5-.35-7.1-.4-6.7-.05-8.3.3-7.7 1.9.3.7 1.3.8 7.85.8 7.1 0 7.5-.05 7.5-.95zm19.7.1c.7-1.75-1-2.2-8.2-2.05l-6.75.15-.15 1.4-.15 1.35h7.45c6.65 0 7.55-.1 7.8-.85zM28.75 16v-1.25l-7.4-.15c-6.25-.1-7.4 0-7.65.65-.2.4-.05 1.1.3 1.5.55.65 1.9.75 7.7.65l7.05-.15V16zm19.75.75c.35-.4.5-1.1.3-1.5-.2-.6-1.5-.75-7.55-.75-7.6 0-8.35.2-7.55 2.25.4 1.1 13.9 1.1 14.8 0zM28.75 8.5c0-1.25-.05-1.25-4.9-1.4-4-.1-4.9 0-5.15.65-.15.4-.15 1.1 0 1.5.25.65 1.15.75 5.15.65 4.85-.15 4.9-.15 4.9-1.4zm15 0c0-1.25-.05-1.25-5.1-1.4-5.1-.15-5.15-.15-5.15 1.05 0 .65.15 1.35.35 1.55.2.2 2.5.25 5.15.2 4.7-.15 4.75-.15 4.75-1.4z"/>
</symbol>
</svg>